<?xml version="1.0" encoding="utf-8"?>
<!-- Generator: Adobe Illustrator 15.0.0, SVG Export Plug-In . SVG Version: 6.00 Build 0)  -->
<!DOCTYPE svg PUBLIC "-//W3C//DTD SVG 1.1//EN" "http://www.w3.org/Graphics/SVG/1.1/DTD/svg11.dtd">
<svg version="1.1" id="Layer_1" xmlns="http://www.w3.org/2000/svg" xmlns:xlink="http://www.w3.org/1999/xlink" x="0px" y="0px"
	 width="150px" height="150px" viewBox="0 0 150 150" enable-background="new 0 0 150 150" xml:space="preserve">
<path fill-rule="evenodd" clip-rule="evenodd" d="M103.859,45.923c-18.688,0-37.373,0-56.059,0c0.93-5.078,1.385-8.022,4.782-10.361
	c2.898-1.996,7.841-1.758,9.299-4.782c1.742-3.615,0.209-6.953,0.531-10.096c0.593-5.786,5.575-12.255,12.487-12.221
	c7.47,0.038,13.365,4.321,14.347,11.424c0.411,2.976-1.09,6.891,0.531,10.627c1.544,3.563,7.382,3.226,10.361,5.845
	C102.896,38.784,103.049,41.3,103.859,45.923z M74.633,25.997c6.632,1.572,6.859-9.665,0-7.705
	C70.294,19.533,71.97,25.366,74.633,25.997z"/>
<path fill-rule="evenodd" clip-rule="evenodd" d="M53.911,17.496c0.079,5.041,0.106,7.186-2.125,8.768
	c-3.401,2.411-13.388-1.063-16.738,1.859c-1.542,1.345-1.063,7.424-1.063,11.69c0,28.943-0.216,61.075,0.266,88.471
	c2.029,2.932,13.966,1.86,20.457,1.86c18.298,0,34.065,0,52.605,0c4.009,0,7.882,0.224,9.299-1.064
	c2.883-2.622,1.327-19.174,1.327-24.442c0-22.146-0.266-41.09-0.266-64.293c0-3.629,0.577-10.361-0.797-11.956
	c-2.77-3.214-13.42,0.739-17.27-2.391c-2.015-1.639-1.923-3.577-1.858-8.501c10.694,0.876,25.105-2.781,28.692,4.517
	c2.37,4.822,0.797,21.328,0.797,27.896c0,24.313,0,46.688,0,71.733c0,7.879,0.781,14.529-4.25,17.002
	c-4.165,2.047-17.466,0.799-23.381,0.799c-18.096,0-29.43,0-48.087,0c-9.707,0-23.704,2.179-26.568-4.783
	c-1.16-2.821-0.531-9.077-0.531-13.814c0-28.662,0-55.659,0-84.751c0-9.676-1.168-16.865,6.908-18.332
	C38.303,16.494,46.023,18.158,53.911,17.496z"/>
<path fill-rule="evenodd" clip-rule="evenodd" d="M43.55,55.222c10.715,0,21.431,0,32.146,0c0.429,1.061,0.429,3.721,0,4.782
	c-10.804,0-21.608,0-32.413,0C42.977,58.985,42.576,55.821,43.55,55.222z"/>
<path fill-rule="evenodd" clip-rule="evenodd" d="M43.284,69.303c20.192,0,40.383,0,60.576,0c0,1.594,0,3.188,0,4.782
	c-20.192,0-40.384,0-60.576,0c-0.544-0.873-0.143-2.69-0.266-3.985C42.996,69.723,42.974,69.347,43.284,69.303z"/>
<path fill-rule="evenodd" clip-rule="evenodd" d="M43.284,83.383c15.498,0,30.996,0,46.494,0c0,1.506,0,3.013,0,4.518
	c-15.586,0-31.173,0-46.759,0C43.191,86.479,42.669,84.362,43.284,83.383z"/>
<path fill-rule="evenodd" clip-rule="evenodd" d="M43.284,97.465c17.092,0,34.183,0,51.276,0c0,1.505,0,3.01,0,4.515
	c-17.181,0-34.361,0-51.542,0C43.191,100.561,42.669,98.443,43.284,97.465z"/>
<path fill-rule="evenodd" clip-rule="evenodd" d="M43.55,111.278c12.398,0,24.796,0,37.194,0c0,1.596,0,3.19,0,4.783
	c-12.575,0-25.15,0-37.726,0C43.277,114.55,42.443,111.945,43.55,111.278z"/>
</svg>
