<?xml version="1.0" encoding="utf-8"?>
<!-- Generator: Adobe Illustrator 15.0.0, SVG Export Plug-In . SVG Version: 6.00 Build 0)  -->
<!DOCTYPE svg PUBLIC "-//W3C//DTD SVG 1.1//EN" "http://www.w3.org/Graphics/SVG/1.1/DTD/svg11.dtd">
<svg version="1.1" id="Layer_1" xmlns="http://www.w3.org/2000/svg" xmlns:xlink="http://www.w3.org/1999/xlink" x="0px" y="0px"
	 width="150px" height="150px" viewBox="0 0 150 150" enable-background="new 0 0 150 150" xml:space="preserve">
<path fill-rule="evenodd" clip-rule="evenodd" d="M47.157,75.086c-8.996,9.095-33.324-4.949-36.478-14.296
	C6.325,47.892,18.296,32.104,30.89,33.678c11.037,1.38,21.257,9.73,26.619,18.239c0.118,2.089-0.453,3.49-0.986,4.929
	c15.09,12.022,32.464,21.761,48.802,32.535c0.567,0.582,0.558,1.742,0.493,2.957c1.005-0.309,16.749,8.556,21.689,16.268
	c3.424,1.835,5.875,4.641,8.873,6.901c6.643,9.788,12.311,20.553,13.803,35.492c-0.821,0-1.643,0-2.465,0
	c-4.635-10.493-4.41-23.788-12.324-30.07c-1.01-0.801-3.482-1.217-5.422-2.464c-2.915-1.875-4.149-4.591-8.873-4.437
	c0.201-1.188-0.899-1.072-0.492-2.465c-6.955-3.069-13.168-6.88-19.226-10.846c-5.661,0.828-9.43-3.875-14.296-5.422
	c-1.8,0.336-2.403,1.868-3.943,2.465c2.326,3.26,5.69,5.483,8.873,7.887c1.767,5.464,0.696,13.764,1.973,19.719
	c-5.271,4.261-2.111,16.948-2.958,25.633c-2.958,0-5.916,0-8.873,0c-1.016-8.022,2.392-20.467-2.465-24.647
	c-0.748-7.412,2.533-15.896-3.451-17.746c-2.181,1.763-3.122,4.766-5.422,6.408c-4.202-1.22-7.807-3.037-10.352-5.915
	c1.938-6.443,7.375-12.013,7.888-18.239c0.005-0.118,2.14-0.86,1.479-3.451C68.708,83.006,50.086,78.382,47.157,75.086z"/>
</svg>
