<?xml version="1.0" encoding="utf-8"?>
<!-- Generator: Adobe Illustrator 15.0.0, SVG Export Plug-In . SVG Version: 6.00 Build 0)  -->
<!DOCTYPE svg PUBLIC "-//W3C//DTD SVG 1.1//EN" "http://www.w3.org/Graphics/SVG/1.1/DTD/svg11.dtd">
<svg version="1.1" id="Layer_1" xmlns="http://www.w3.org/2000/svg" xmlns:xlink="http://www.w3.org/1999/xlink" x="0px" y="0px"
	 width="150px" height="150px" viewBox="0 0 150 150" enable-background="new 0 0 150 150" xml:space="preserve">
<path fill-rule="evenodd" clip-rule="evenodd" d="M130.748,117.849c0.486,1.037-0.947,1.497-1.432,2.003
	c-9.834,10.289-26.588,19.913-46.353,19.743c-16.707-0.144-31.65-6.646-41.489-14.879c-7.224-6.044-15.465-15.878-19.171-25.466
	c-3.848-9.957-6.081-24.431-3.72-37.77c0.696-3.932,2.169-8.389,3.72-12.304c3.68-9.29,11.529-18.998,19.171-25.179
	c7.147-5.782,17.101-11.582,28.041-13.734c23.229-4.572,44.969,3.789,58.371,16.882c-11.877-5.923-29.396-5.918-41.775-0.858
	c-21.583,8.82-38.951,36.966-27.469,66.382c5.91,15.142,20.886,27.832,37.197,30.902
	C109.159,126.079,121.533,123.115,130.748,117.849z"/>
</svg>
