<?xml version="1.0" encoding="utf-8"?>
<!-- Generator: Adobe Illustrator 15.0.0, SVG Export Plug-In . SVG Version: 6.00 Build 0)  -->
<!DOCTYPE svg PUBLIC "-//W3C//DTD SVG 1.1//EN" "http://www.w3.org/Graphics/SVG/1.1/DTD/svg11.dtd">
<svg version="1.1" id="Layer_1" xmlns="http://www.w3.org/2000/svg" xmlns:xlink="http://www.w3.org/1999/xlink" x="0px" y="0px"
	 width="150px" height="150px" viewBox="0 0 150 150" enable-background="new 0 0 150 150" xml:space="preserve">
<g>
	<g>
		<path fill="#020202" d="M123.605,49.197c0.168-0.152,0.336-0.307,0.498-0.469l6.77-6.769c4.006-4.006,4.602-9.903,1.332-13.173
			l-10.262-10.262c-3.27-3.27-9.167-2.673-13.172,1.332l-6.77,6.77c-0.163,0.162-0.318,0.329-0.469,0.498L123.605,49.197z"/>
		<polygon fill="#020202" points="30.131,120.599 41.044,131.512 26.522,135.121 12,138.73 15.609,124.207 19.218,109.685 		"/>
		<polygon fill="#020202" points="104.207,37.051 32.648,108.61 29.49,105.453 101.049,33.894 97.893,30.736 22.465,106.163 
			44.567,128.265 119.994,52.838 		"/>
	</g>
	<path d="M141.677,137.533c-11.985-0.094-13.479-2.981-17.384-15.013c-7.204-18.987-39.653,4.969-19.545,13.288
		C124.855,144.128,153.661,137.627,141.677,137.533z"/>
	<g>
		<path d="M101.791,104.899L90.563,88.947L79.471,100.04l12.063,13.126c6.07,7.533,4.67,7.197,10.484,2.511
			C107.832,110.992,107.862,112.432,101.791,104.899z"/>
		<path d="M66.784,55.166L40.301,17.543c-6.07-7.534-15.705-9.842-21.52-5.156c-5.814,4.686-5.606,14.591,0.464,22.124
			l32.659,35.536L66.784,55.166z M34.59,22.844c0,0-1.048-4.492-9.433-9.433c0,0,8.833-1.348,13.325,5.989
			C35.488,21.795,34.59,22.844,34.59,22.844z"/>
	</g>
</g>
</svg>
